<svg xmlns="http://www.w3.org/2000/svg" width="50" height="50" viewBox="0 0 50 50"><defs><style>.a{fill:#8bc34a;}</style></defs><g transform="translate(-201.027 -609.971)"><path class="a" d="M25.014,49.971a24.989,24.989,0,1,1,9.732-1.964,25,25,0,0,1-9.732,1.964Zm0-45.821a20.824,20.824,0,1,0,8.109,1.636A20.838,20.838,0,0,0,25.014,4.15Z" transform="translate(201 610)"/><path class="a" d="M.839,26.283A2.929,2.929,0,0,1,0,24.265V6.184H5.526V24.262A2.813,2.813,0,0,1,2.8,27.116a2.741,2.741,0,0,1-1.963-.833ZM7.7,17.227V12.32h4.718a3.615,3.615,0,0,0,3.814-3.7,3.616,3.616,0,0,0-3.814-3.7H7.7V0h5.456C18.8,0,21.88,3.991,21.88,8.657s-3.114,8.569-8.718,8.569ZM5.526,5.564,0,3.135V3.025A3.891,3.891,0,0,1,.23,1.637l5.3,2.32V5.563Zm0-2.45L2.533.017C2.659.007,2.789,0,2.917,0H5.526V3.115Z" transform="translate(216.695 621.454)"/></g></svg>