<svg xmlns="http://www.w3.org/2000/svg" width="286.398" height="58.177" viewBox="0 0 286.398 58.177"><defs><style>.a{fill:#8bc34a;}</style></defs><g transform="translate(0 0)"><rect class="a" width="0.01" height="12.711" transform="translate(9.809 19.7)"/><path class="a" d="M147.285,92.45V88.305l-.005-.005v4.155Z" transform="translate(-71.917 -43.117)"/><path class="a" d="M147.29,74.822v.02Z" transform="translate(-71.922 -34.259)"/><path class="a" d="M9.809,43.154V30.443h0V22H5.178C1.863,22,0,23.878,0,27.194V63.668a4.979,4.979,0,0,0,4.974,4.9,4.907,4.907,0,0,0,4.836-4.9V51.581h0Z" transform="translate(0 -10.743)"/><path class="a" d="M32.876,22H23.19v8.443h8.371c3.868,0,6.77,2.558,6.77,6.355s-2.9,6.355-6.77,6.355H23.19v8.428h9.686c9.947,0,15.474-6.7,15.474-14.716S42.89,22,32.876,22Z" transform="translate(-11.324 -10.743)"/><path class="a" d="M122.684,45.249a22.387,22.387,0,0,0-12.368,3.582,3.469,3.469,0,0,0-1.586,2.9,3.377,3.377,0,0,0,3.316,3.382,3.582,3.582,0,0,0,1.724-.481,13.386,13.386,0,0,1,7.379-2.2,8.719,8.719,0,0,1,5.27,1.494v-8.4A24.372,24.372,0,0,0,122.684,45.249Z" transform="translate(-53.093 -22.095)"/><path class="a" d="M147.28,46.64V63.311h0v4.605h0v4.145h0V77a4.431,4.431,0,0,0,8.776-1.023V58.593C156.056,51.516,152.29,48.006,147.28,46.64Z" transform="translate(-71.917 -22.774)"/><path class="a" d="M119.105,87.05c-3.454,0-6.289-1.8-6.289-4.907,0-3.244,2.835-5.04,6.289-5.04a10.546,10.546,0,0,1,4.994,1.172V73.546a15.5,15.5,0,0,0-8.52-2.246c-5.317,0-11.58,2.835-11.58,10.638,0,7.461,6.284,11.053,11.6,11.053a14.993,14.993,0,0,0,8.52-2.492V85.894A10.546,10.546,0,0,1,119.105,87.05Z" transform="translate(-50.783 -34.816)"/><path class="a" d="M187.345,58.649c-3.73-.762-6.355-1.535-6.355-3.582,0-1.934,2.072-3.111,5.25-3.111a14.573,14.573,0,0,1,7.6,2.144,3.28,3.28,0,0,0,1.658.414,3.393,3.393,0,0,0,3.382-3.387,3.29,3.29,0,0,0-1.74-2.912,20.693,20.693,0,0,0-10.986-2.968c-8.771,0-13.678,4.9-13.678,10.5,0,7.942,7.394,9.323,13.125,10.428,3.8.762,6.7,1.586,6.7,3.935,0,2.077-1.8,3.387-5.6,3.387a18.082,18.082,0,0,1-9.047-2.835,4.227,4.227,0,0,0-1.868-.481,3.654,3.654,0,0,0-1.8,6.836,23.676,23.676,0,0,0,12.281,3.249c9.257,0,14.44-4.605,14.44-10.71C200.747,61.274,193.076,59.755,187.345,58.649Z" transform="translate(-84.054 -22.094)"/><path class="a" d="M264.881,54.525a3.838,3.838,0,1,0,0-7.675H263.52v7.675Z" transform="translate(-128.677 -22.877)"/><path class="a" d="M249.725,63.95c-.414,0-.829.138-1.448.138-1.934,0-2.968-1.586-2.968-3.659V45.37h.041V37.694h-.041V32.521a4.421,4.421,0,1,0-8.842,0V37.7h-2.129a3.838,3.838,0,0,0,0,7.675h2.144v17.4c0,5.941,3.316,9.118,9.461,9.118a13.816,13.816,0,0,0,4.559-.691,3.716,3.716,0,0,0-.778-7.256Z" transform="translate(-112.554 -13.721)"/><path class="a" d="M77.823,11.528l8.827-3.746A7.343,7.343,0,0,0,84.3,4.2L77.49,11.021A3.209,3.209,0,0,1,77.823,11.528Z" transform="translate(-37.838 -2.051)"/><path class="a" d="M79.1,19.064v.665h8.842V16.715a13.194,13.194,0,0,0-.092-1.535L79.09,18.905C79.09,18.956,79.1,19.008,79.1,19.064Z" transform="translate(-38.62 -7.412)"/><path class="a" d="M62.679.184c-1.863,0-12.107-.414-13.3,0A3.582,3.582,0,0,0,46.75,3.638a3.576,3.576,0,0,0,3.387,3.8c.414,0,9.553.558,10.173.558h.22l6.959-6.934a12.035,12.035,0,0,0-4.81-.875Z" transform="translate(-22.828 0)"/><path class="a" d="M87.94,40.417V28.07H79.1v.716a1.078,1.078,0,0,0,0,.128v38.2a4.39,4.39,0,1,0,8.776,0V54.049a4.41,4.41,0,0,0,.077-.783V48.083h-.077V40.407Z" transform="translate(-38.622 -13.707)"/><path class="a" d="M287.05,16.05a5.25,5.25,0,1,0,5.25,5.25A5.25,5.25,0,0,0,287.05,16.05Z" transform="translate(-137.603 -7.837)"/><path class="a" d="M287.971,46.29a4.411,4.411,0,0,0-4.421,4.421V76.2a4.4,4.4,0,0,0,4.355,4.421,4.457,4.457,0,0,0,4.421-4.421V50.711A4.442,4.442,0,0,0,287.971,46.29Z" transform="translate(-138.458 -22.603)"/><path class="a" d="M334.578,29.229a12.6,12.6,0,0,1,9.461,4.283,4.634,4.634,0,0,0,8.131-3.055,4.436,4.436,0,0,0-1.177-3.106c-3.659-4.007-8.837-6.841-16.436-6.841-13.473,0-24.178,9.671-24.178,23.835s10.7,23.83,24.178,23.83c7.6,0,12.792-2.9,16.436-6.908a4.283,4.283,0,0,0,1.177-3.039,4.605,4.605,0,0,0-4.605-4.605,4.743,4.743,0,0,0-3.454,1.535,12.445,12.445,0,0,1-9.533,4.355c-8.013,0-14.092-6.422-14.092-15.126S326.56,29.229,334.578,29.229Z" transform="translate(-151.559 -10.015)"/><path class="a" d="M433.31,45.3v7.839c4.795.542,7.517,4.8,7.517,9.61s-2.712,9.134-7.507,9.676v7.844c10.413-.512,16.625-8.295,16.625-17.521S443.723,45.791,433.31,45.3Z" transform="translate(-211.586 -22.12)"/><path class="a" d="M405.938,62.744c0-4.856,2.671-9.108,7.507-9.62V45.29c-10.393.466-16.625,8.279-16.625,17.454s6.232,17.055,16.625,17.521V72.43C408.61,71.924,405.938,67.656,405.938,62.744Z" transform="translate(-193.768 -22.115)"/><path class="a" d="M477.121,45.92a4.411,4.411,0,0,0-4.421,4.421V75.829a4.39,4.39,0,0,0,4.349,4.421,4.447,4.447,0,0,0,4.421-4.421V50.341A4.436,4.436,0,0,0,477.121,45.92Z" transform="translate(-230.82 -22.423)"/><path class="a" d="M476.19,15.68a5.25,5.25,0,1,0,5.25,5.25A5.25,5.25,0,0,0,476.19,15.68Z" transform="translate(-229.961 -7.657)"/><path class="a" d="M529.4,45.25a15.73,15.73,0,0,0-9.564,3.167V54.88a9.211,9.211,0,0,1,5.485-1.827c3.73,0,6.14,1.591,6.14,6.217V75.5a4.385,4.385,0,1,0,8.771,0V55.867C540.247,49.394,536.726,45.25,529.4,45.25Z" transform="translate(-253.839 -22.095)"/><path class="a" d="M502.922,45.79a4.406,4.406,0,0,0-4.355,4.488V75.765a4.39,4.39,0,1,0,8.776,0V57.257l.061-.087v-7A4.477,4.477,0,0,0,502.922,45.79Z" transform="translate(-243.45 -22.359)"/></g></svg>